<svg xmlns="http://www.w3.org/2000/svg" xmlns:xlink="http://www.w3.org/1999/xlink" width="1.7778in" height="1.7778in" viewBox="0 0 128 128"><defs><linearGradient id="a" x1="63.9997" y1="122.9664" x2="63.9997" y2="9.2106" gradientTransform="matrix(1, 0, 0, -1, 0, 130)" gradientUnits="userSpaceOnUse"><stop offset="0" stop-color="#4387fd"/><stop offset="1" stop-color="#4683ea"/></linearGradient></defs><title>Artboard 1-copy</title><path d="M27.7906,115.2166,1.54,69.7493a11.499,11.499,0,0,1,0-11.499L27.7906,12.7831a11.4991,11.4991,0,0,1,9.9585-5.7495H90.25a11.4991,11.4991,0,0,1,9.9585,5.7495L126.4594,58.25a11.499,11.499,0,0,1,0,11.499l-26.2506,45.4672A11.4991,11.4991,0,0,1,90.25,120.966H37.7491A11.4989,11.4989,0,0,1,27.7906,115.2166Z" fill="url(#a)"/><path d="M89.629,48.4413,64,37,39.5,50.3124,38.4734,79.6451,79.7943,120.966H90.2506a11.4991,11.4991,0,0,0,9.9585-5.75L120.7779,79.59Z" opacity="0.07" style="isolation:isolate"/><path d="M89.0257,47.9933l-23.6764-13.67a2.6984,2.6984,0,0,0-2.6986,0l-23.6764,13.67A2.6987,2.6987,0,0,0,37.625,50.33V77.6695a2.6983,2.6983,0,0,0,1.3493,2.337l23.6764,13.67a2.6984,2.6984,0,0,0,2.6986,0l23.6764-13.67a2.6987,2.6987,0,0,0,1.3493-2.337V50.33A2.6983,2.6983,0,0,0,89.0257,47.9933ZM85.7774,75.05l-8.26-4.7691V57.7186L65.3188,64.7613V78.8466l10.88-6.2813,8.26,4.7691L64,89.1462,43.5414,77.3344l8.26-4.7691,10.88,6.2813V64.7613L50.483,57.7186V70.2812l-8.26,4.7691V51.4267L62.6812,39.6149v9.5383l-10.88,6.2813L64,62.4771l12.1982-7.0427-10.88-6.2813V39.6148L85.7773,51.4266V75.05Z" fill="#fff"/></svg>