<?xml version="1.0" encoding="UTF-8"?>
<svg width="1024px" height="860px" viewBox="0 0 1024 860" version="1.1" xmlns="http://www.w3.org/2000/svg" xmlns:xlink="http://www.w3.org/1999/xlink">
    <!-- Generator: Sketch 41.2 (35397) - http://www.bohemiancoding.com/sketch -->
    <title>1024</title>
    <desc>Created with Sketch.</desc>
    <defs></defs>
    <g id="Page-1" stroke="none" stroke-width="1" fill="none" fill-rule="evenodd">
        <g id="1024">
            <path d="M540.970161,859.589709 L482.97129,859.589709 C478.693259,859.589709 474.641808,857.513 472.133253,854.035595 L420.726756,782.47027 C419.658598,780.999268 418.908728,779.31735 418.514912,777.50023 L417.328069,772.027238 L415.698857,770.680622 C412.720959,776.121166 407.239902,782.919142 398.300814,783.611378 C392.976204,784.022393 369.633155,783.784437 359.847093,783.654643 C356.68038,783.616786 353.616166,782.437821 351.215506,780.328664 L267.451347,707.011116 C264.867266,704.750532 263.270422,701.635469 262.935948,698.239185 L256.170942,630.42167 L224.714201,601.504585 C221.509724,599.373795 216.69222,594.495693 216.69222,584.533981 C216.69222,580.337299 215.516166,542.166963 214.755507,518.29563 L196.780227,505.840787 C193.16575,503.326022 191.013248,499.205054 191.013248,494.819088 L191.013248,429.65154 C191.013248,423.31866 195.134831,415.260598 204.171024,412.545734 C205.751683,412.053598 217.695642,407.040293 234.737632,399.614979 C232.838683,393.498423 228.328678,380.84348 222.583278,365.825199 C220.86775,363.937774 219.394986,362.629015 218.823143,362.228816 C215.305771,360.530674 195.685095,348.129911 8.35267902,220.450189 C6.35122974,219.087349 4.75438611,217.194516 3.73477988,214.977197 C2.62885777,212.58141 -0.888514005,203.971723 0.21201336,194.026235 C1.01043517,186.828061 6.57241416,160.59339 8.92991641,149.652813 C9.42623267,147.39223 10.4836021,145.304705 11.9887351,143.601155 C17.2647928,137.614393 26.7919071,132.590273 37.7108649,136.43002 C44.3949502,138.798766 263.470028,212.01356 295.045452,222.559346 C295.347558,222.09425 295.687427,221.520992 296.065059,220.823348 C302.92717,207.979121 328.767985,185.973581 336.531018,179.537948 C338.780626,177.666747 341.51576,176.612168 344.445105,176.476966 L349.645636,176.260642 C359.91183,166.49903 389.394095,141.275674 426.91992,133.547506 C426.925315,133.531281 426.93071,133.515057 426.941499,133.498833 C428.667817,129.258886 440.390591,79.7315491 453.629288,20.7724941 C453.979946,19.1554736 454.659684,17.5979421 455.636132,16.1593888 C459.148109,11.0162901 464.774825,4.45627053 471.653121,2.39037813 C472.996412,1.98477098 476.950757,0.79499001 506.023022,0.25418048 L506.023022,0 L511.579606,0.146018573 L511.968028,5.55411388 L512.167633,0.151426669 L517.643296,0.070305239 L517.648691,0.248772384 C546.963719,0.78417382 550.939644,1.98477098 552.293724,2.39037813 C559.155836,4.45627053 564.787947,11.0162901 568.294529,16.1593888 C569.265582,17.5709017 569.950715,19.1392493 570.312162,20.7995346 C583.556254,79.7477734 595.279028,129.27511 597.01074,133.536689 C597.016135,133.542097 597.016135,133.547506 597.016135,133.547506 C634.558145,141.275674 664.02962,166.49903 674.295814,176.260642 L679.474766,176.476966 C682.414901,176.612168 685.150035,177.666747 687.405037,179.53254 C695.173466,185.973581 721.019674,207.984529 727.876392,220.828756 C728.248629,221.520992 728.588497,222.09425 728.895998,222.564754 C761.156555,211.781012 979.654395,138.755501 986.225191,136.43002 C997.144148,132.590273 1006.67126,137.614393 1011.95811,143.606563 C1013.46864,145.315521 1014.52061,147.408454 1015.00614,149.647405 C1016.84035,158.127299 1022.88246,186.395413 1023.72404,194.026235 C1024.82996,204.014987 1021.3018,212.597635 1020.19588,214.993421 C1019.19246,217.189108 1017.59562,219.076533 1015.59417,220.444781 C823.929773,351.071915 807.821073,361.039035 804.897123,362.331569 C804.64357,362.537077 803.149226,363.851244 801.352777,365.825199 C795.55343,381.000314 791.016452,393.741787 789.16066,399.598754 C806.240414,407.040293 818.195162,412.053598 819.792005,412.551143 C828.806619,415.266006 832.922807,423.31866 832.922807,429.65154 L832.922807,494.819088 C832.922807,499.205054 830.7757,503.326022 827.172013,505.835379 L809.180548,518.29563 C808.419889,542.166963 807.243836,580.337299 807.243836,584.533981 C807.243836,594.490285 802.431726,599.368387 799.232644,601.504585 L767.765114,630.42167 L761.000107,698.244593 C760.665633,701.640877 759.06879,704.750532 756.500893,707.005708 L672.70976,780.33948 C670.330679,782.437821 667.261071,783.616786 664.078173,783.654643 C654.308295,783.784437 630.970641,784.016985 625.640636,783.611378 C616.712338,782.919142 611.225886,776.121166 608.242593,770.675214 L606.613381,772.027238 L605.431933,777.484006 C605.032722,779.31735 604.282853,780.999268 603.203904,782.486494 L551.808197,854.024779 C549.305037,857.507592 545.253586,859.589709 540.970161,859.589709" id="Fill-1" fill="#3976B2"></path>
            <path d="M664.366252,555.037689 C664.366252,555.037689 657.946509,672.485295 652.810715,731.693122 C652.810715,731.693122 651.208476,743.59634 645.107023,745.207952 C639.010965,746.814157 640.936888,723.002313 640.936888,723.002313 L649.600843,556.643893 C649.600843,556.643893 651.850451,546.671365 658.270194,546.352288 C666.292175,546.341472 664.366252,555.037689 664.366252,555.037689" id="Fill-5" fill="#FEFEFE"></path>
            <path d="M630.502917,492.452506 C630.502917,492.452506 641.896612,511.278086 626.489229,537.664183 C611.081846,564.044872 574.812996,544.256651 574.812996,544.256651 C574.812996,544.256651 554.107976,532.834754 576.258786,518.514117 C598.404202,504.198889 620.069486,492.452506 620.069486,492.452506 C620.069486,492.452506 628.45831,487.666342 630.502917,492.452506" id="Fill-7" fill="#FEFEFE"></path>
            <path d="M665.971188,505.001991 C667.578821,509.826012 671.910799,505.001991 671.910799,505.001991 L701.117932,471.055377 L703.523987,465.101064 C703.523987,465.101064 704.327803,454.966293 703.847671,452.39204 C703.367539,449.817786 704.807935,448.53066 704.807935,448.53066 C704.807935,448.53066 751.353769,391.740251 752.956008,386.429501 C754.563641,381.118752 751.353769,382.405878 751.353769,382.405878 C711.227678,404.60611 690.528053,419.570309 690.528053,419.570309 C690.528053,419.570309 651.685911,449.336466 648.799724,452.39204 C645.908142,455.447614 648.799724,459.308994 648.799724,459.308994" id="Fill-9" fill="#FEFEFE"></path>
            <path d="M738.298494,520.853659 L721.607162,674.200202 C721.607162,674.200202 722.033346,678.494229 719.039265,682.782849 C716.045183,687.071468 667.255136,732.98079 667.255136,732.98079 C667.255136,732.98079 664.449871,736.409522 664.568555,724.825382 C664.687239,713.241242 671.964746,658.754681 672.390931,548.494434 L673.248695,540.78249 C673.248695,540.78249 673.674879,534.336041 677.95291,530.474661 C682.236335,526.613281 725.032823,478.135114 725.032823,478.135114 C725.032823,478.135114 728.453089,475.560861 728.453089,471.266833 L728.453089,448.95844 C728.453089,448.95844 727.60072,444.242581 734.446648,439.094074 C741.292575,433.945568 751.137979,428.797061 751.137979,428.797061 L798.644077,439.521314 C798.644077,439.521314 802.495923,440.808441 802.495923,448.103961 L802.495923,473.413847 C802.495923,473.413847 802.064344,478.562354 796.928549,481.996494 C791.792755,485.425227 738.298494,520.853659 738.298494,520.853659" id="Fill-11" fill="#FEFEFE"></path>
            <path d="M902.640137,254.178857 L623.176318,423.219692 C623.176318,423.219692 607.66104,433.835783 612.47315,417.211298 C617.18276,398.331638 629.596061,358.436118 629.596061,358.436118 C629.596061,358.436118 631.182115,352.465581 634.559224,350.280711 C642.430152,346.419331 792.760032,272.950356 798.214116,270.051617 C802.815831,267.693687 806.775572,258.900124 806.775572,258.900124 L818.611636,235.558785 C818.611636,235.558785 820.613085,233.211672 823.623351,232.097604 C826.633617,230.983536 913.337911,198.83241 913.337911,198.83241 C913.337911,198.83241 919.331469,195.403677 917.189756,202.26655 C915.053438,209.129423 908.633695,246.028857 908.633695,246.028857 C908.633695,246.028857 907.92159,250.988081 902.640137,254.178857" id="Fill-13" fill="#FEFEFE"></path>
            <path d="M803.992425,244.847729 L798.214656,256.107384 C798.214656,256.107384 795.328469,262.22394 789.227016,265.760834 C783.130957,269.303136 631.306734,339.770618 631.306734,339.770618 C631.306734,339.770618 628.949231,341.382231 627.131203,335.265675 C625.20528,327.867401 611.578162,312.740958 611.578162,312.740958 C611.578162,312.740958 607.553685,307.700613 615.899351,305.018198 C626.170939,301.481304 803.992425,237.449455 803.992425,237.449455 C803.992425,237.449455 808.324402,236.405693 803.992425,244.847729" id="Fill-15" fill="#FEFEFE"></path>
            <path d="M433.077479,187.249892 C396.538891,203.003674 372.688737,226.40991 368.950181,230.071191 C368.281233,230.730978 367.779522,229.827826 367.779522,229.827826 L355.614379,216.210242 C352.620297,212.348862 346.842528,217.281045 346.842528,217.281045 C330.361591,230.152312 320.731977,244.094382 318.16408,248.599325 C315.95763,252.368768 319.879608,253.536916 319.879608,253.536916 C319.879608,253.536916 402.688897,282.924506 406.114558,283.568069 C412.615222,285.509576 413.138512,285.271619 414.222856,281.442688 C414.832461,279.30649 433.935243,195.399892 434.361427,190.894948 C435.300113,185.962765 433.077479,187.249892 433.077479,187.249892" id="Fill-17" fill="#FEFEFE"></path>
            <path d="M705.772515,248.601488 C703.204618,244.096545 693.575004,230.154475 677.099462,217.283208 C677.099462,217.283208 671.321693,212.351026 668.322216,216.206997 L656.157073,229.82999 C656.157073,229.82999 655.660757,230.727733 654.991809,230.073354 C651.253253,226.406665 627.397704,203.005837 590.864511,187.252055 C590.864511,187.252055 588.641877,185.964929 589.580562,190.897111 C590.006747,195.402055 609.104134,279.303245 609.713739,281.439443 C610.803477,285.268375 611.326767,285.511739 617.822037,283.570233 C621.247698,282.926669 704.062382,253.533671 704.062382,253.533671 C704.062382,253.533671 707.978965,252.370931 705.772515,248.601488" id="Fill-19" fill="#FEFEFE"></path>
            <path d="M545.604244,240.342786 L512.038159,240.342786 L511.903291,240.342786 L478.337206,240.342786 C478.337206,240.342786 473.201412,240.261665 473.201412,237.40619 C473.201412,234.550716 488.608795,84.2813797 488.608795,84.2813797 C488.608795,84.2813797 491.494982,82.6751754 491.818666,85.5685064 C492.136956,88.4672455 490.254191,186.770194 490.254191,186.770194 C490.254191,186.770194 490.049191,189.663525 493.744589,189.825768 C496.959856,189.966378 508.725788,189.982603 512.140659,189.982603 L512.140659,189.982603 L512.593818,189.982603 L513.079345,189.982603 L513.079345,189.982603 C516.321585,189.982603 527.008568,189.96097 530.196861,189.825768 C533.886864,189.663525 533.687259,186.770194 533.687259,186.770194 C533.687259,186.770194 531.804494,88.4672455 532.122784,85.5685064 C532.446468,82.6751754 535.332655,84.2813797 535.332655,84.2813797 C535.332655,84.2813797 550.740038,234.550716 550.740038,237.40619 C550.740038,240.261665 545.604244,240.342786 545.604244,240.342786 M538.866211,38.5883825 C538.224237,34.4079248 534.048707,34.4079248 534.048707,34.4079248 L512.140659,33.4398757 L511.795396,33.4398757 L489.892744,34.4079248 C489.892744,34.4079248 485.717213,34.4079248 485.075239,38.5883825 C484.433265,42.7742482 440.137038,275.414284 440.137038,275.414284 C440.137038,275.414284 438.85309,281.53084 444.630858,279.60015 C472.030753,265.814915 510.533026,264.830642 511.968028,264.798193 C513.408424,264.830642 551.905303,265.814915 579.305197,279.60015 C585.082966,281.53084 583.799017,275.414284 583.799017,275.414284 C583.799017,275.414284 539.508186,42.7742482 538.866211,38.5883825" id="Fill-21" fill="#FEFEFE"></path>
            <path d="M447.682124,518.51628 C425.536708,504.195644 403.86603,492.454669 403.86603,492.454669 C403.86603,492.454669 395.482601,487.663097 393.437994,492.454669 C393.437994,492.454669 382.044299,511.274841 397.446287,537.660938 C412.85367,564.047035 449.127915,544.258814 449.127915,544.258814 C449.127915,544.258814 469.82754,532.836917 447.682124,518.51628" id="Fill-23" fill="#FEFEFE"></path>
            <path d="M333.413397,419.57085 C333.413397,419.57085 312.708377,404.606651 272.587681,382.406419 C272.587681,382.406419 269.37781,381.119293 270.985443,386.430042 C272.587681,391.735384 319.12812,448.531201 319.12812,448.531201 C319.12812,448.531201 320.573911,449.818327 320.093779,452.392581 C319.613647,454.966834 320.412069,465.101605 320.412069,465.101605 L322.823518,471.055918 L352.030652,505.002532 C352.030652,505.002532 356.362629,509.826553 357.970262,505.002532 L375.141726,459.309535 C375.141726,459.309535 378.027913,455.448155 375.141726,452.392581 C372.250144,449.337007 333.413397,419.57085 333.413397,419.57085" id="Fill-25" fill="#FEFEFE"></path>
            <path d="M383.004563,723.003935 L374.340607,556.645516 C374.340607,556.645516 372.091,546.672988 365.671257,546.348502 C357.649275,546.343094 359.575198,555.039311 359.575198,555.039311 C359.575198,555.039311 365.994941,672.486917 371.130736,731.689336 C371.130736,731.689336 372.732974,743.597962 378.834427,745.204167 C384.930486,746.815779 383.004563,723.003935 383.004563,723.003935" id="Fill-27" fill="#FEFEFE"></path>
            <path d="M351.548901,548.494975 L350.691137,540.783031 C350.691137,540.783031 350.264952,534.336582 345.986922,530.475202 C341.703497,526.613821 298.907009,478.135655 298.907009,478.135655 C298.907009,478.135655 295.486742,475.561402 295.486742,471.267374 L295.486742,448.958981 C295.486742,448.958981 296.339112,444.237714 289.493184,439.089207 C282.647256,433.946108 272.801852,428.797602 272.801852,428.797602 L225.295754,439.521855 C225.295754,439.521855 221.443909,440.808981 221.443909,448.099094 L221.443909,473.414388 C221.443909,473.414388 221.875488,478.562895 227.011282,481.997035 C232.147077,485.425768 285.641338,520.8542 285.641338,520.8542 L302.33267,674.200742 C302.33267,674.200742 301.906485,678.489362 304.900567,682.78339 C307.894649,687.072009 356.684695,732.98133 356.684695,732.98133 C356.684695,732.98133 359.489961,736.410063 359.371277,724.825923 C359.252593,713.241782 351.975086,658.755222 351.548901,548.494975" id="Fill-29" fill="#FEFEFE"></path>
            <path d="M411.465063,417.211298 C406.755454,398.331638 394.347547,358.436118 394.347547,358.436118 C394.347547,358.436118 392.756098,352.465581 389.37899,350.280711 C381.508061,346.419331 231.183576,272.950356 225.724097,270.051617 C221.122382,267.693687 217.168036,258.900124 217.168036,258.900124 L205.326577,235.558785 C205.326577,235.558785 203.325128,233.211672 200.314862,232.097604 C197.304596,230.983536 110.600303,198.83241 110.600303,198.83241 C110.600303,198.83241 104.606744,195.403677 106.748457,202.26655 C108.89017,209.129423 115.309913,246.028857 115.309913,246.028857 C115.309913,246.028857 116.022019,250.988081 121.298076,254.178857 L400.761895,423.219692 C400.761895,423.219692 416.277173,433.835783 411.465063,417.211298" id="Fill-31" fill="#FEFEFE"></path>
            <path d="M225.724636,256.109547 C225.724636,256.109547 228.610823,262.220695 234.712276,265.762997 C240.808335,269.299892 392.632559,339.772782 392.632559,339.772782 C392.632559,339.772782 394.990061,341.378986 396.808089,335.267838 C398.734012,327.864156 412.36113,312.737713 412.36113,312.737713 C412.36113,312.737713 416.385608,307.702776 408.039942,305.020361 C397.768353,301.478059 219.946868,237.44621 219.946868,237.44621 C219.946868,237.44621 215.61489,236.407856 219.946868,244.849893 L225.724636,256.109547 Z" id="Fill-33" fill="#FEFEFE"></path>
            <path d="M511.969646,434.771384 C481.937118,434.219758 456.506304,409.677821 456.506304,379.457385 C456.506304,349.236948 481.937118,324.695012 511.969646,324.143386 C542.002175,324.695012 567.432989,349.236948 567.432989,379.457385 C567.432989,409.677821 542.002175,434.219758 511.969646,434.771384 M612.905269,344.921288 C579.921816,285.453872 519.182416,286.978955 511.969646,287.384562 C504.756876,286.978955 444.017476,285.453872 411.034024,344.921288 C411.034024,344.921288 409.32389,348.993584 409.32389,352.211401 C409.32389,355.429217 442.280369,475.342915 442.280369,475.342915 C442.280369,475.342915 442.922343,476.846365 445.700636,480.924069 C448.484322,484.996365 481.440801,509.024532 481.440801,509.024532 C481.440801,509.024532 483.792909,512.242349 492.138575,512.669589 C499.302792,513.037339 509.283065,512.77775 511.969646,512.691221 C514.656228,512.77775 524.6365,513.037339 531.800718,512.669589 C540.146384,512.242349 542.498491,509.024532 542.498491,509.024532 C542.498491,509.024532 575.45497,484.996365 578.238657,480.924069 C581.016949,476.846365 581.658923,475.342915 581.658923,475.342915 C581.658923,475.342915 614.615402,355.429217 614.615402,352.211401 C614.615402,348.993584 612.905269,344.921288 612.905269,344.921288" id="Fill-35" fill="#FEFEFE"></path>
            <path d="M623.17416,699.943276 L623.17416,670.339362 C623.17416,666.477982 619.106525,670.555686 619.106525,670.555686 L599.636901,684.71408 C593.427553,689.646263 588.933733,686.001206 588.933733,686.001206 C588.933733,686.001206 567.964371,664.547292 564.970289,660.258673 C561.976207,655.970053 557.908572,656.397293 557.908572,656.397293 L466.030721,656.397293 C466.030721,656.397293 461.963085,655.970053 458.969003,660.258673 C455.974922,664.547292 435.00556,686.001206 435.00556,686.001206 C435.00556,686.001206 430.51174,689.646263 424.302391,684.71408 L404.832768,670.555686 C404.832768,670.555686 400.765132,666.477982 400.765132,670.339362 L400.765132,699.943276 C400.765132,699.943276 400.549343,705.519022 405.258952,709.169487 C409.968562,712.814543 443.135436,735.33926 443.135436,735.33926 C443.135436,735.33926 449.528205,738.930235 454.048999,729.763514 L474.592176,692.647756 C474.592176,692.647756 475.876125,689.646263 483.790211,689.429939 C490.878902,689.240656 532.882363,689.235247 540.149081,689.429939 C548.063167,689.646263 549.347116,692.647756 549.347116,692.647756 L569.890293,729.763514 C574.411087,738.930235 580.803857,735.33926 580.803857,735.33926 C580.803857,735.33926 613.97073,712.814543 618.68034,709.169487 C623.38995,705.519022 623.17416,699.943276 623.17416,699.943276" id="Fill-37" fill="#FEFEFE"></path>
            <path d="M621.565988,563.773385 L593.497145,575.925375 C593.459382,575.9416 593.421619,575.957824 593.383855,575.979456 C592.758065,576.363431 585.707138,580.376238 576.309497,574.23805 C576.309497,574.23805 520.970234,540.783572 513.239568,540.783572 C513.19641,540.783572 513.158647,540.799796 513.115489,540.805204 C513.077726,540.805204 513.045358,540.783572 513.0022,540.783572 L510.002723,540.783572 C509.743776,540.783572 509.517196,540.87551 509.306802,540.994488 C497.902317,543.844554 447.628716,574.23805 447.628716,574.23805 C438.236471,580.376238 431.180148,576.363431 430.554358,575.979456 C430.516595,575.957824 430.484226,575.9416 430.441068,575.925375 L402.372226,563.773385 C402.302094,563.740937 392.273269,558.013764 392.634717,566.726205 C392.66169,567.369769 398.196696,638.594384 398.196696,638.594384 C398.401696,651.146573 403.176042,654.715916 403.715517,655.078258 C403.74249,655.099891 403.769464,655.110707 403.801832,655.132339 L418.675136,663.22285 C418.718294,663.24989 426.85896,668.263195 430.370937,665.261702 C430.451858,665.191396 430.538174,665.164356 430.619095,665.094051 C431.509227,664.266612 437.702391,658.404237 442.066737,651.249327 C446.592926,643.824012 453.892012,643.142592 454.442275,643.099327 C454.469249,643.099327 454.490828,643.093919 454.512407,643.093919 L569.425806,643.093919 C569.45278,643.093919 569.474359,643.099327 569.495938,643.099327 C570.051596,643.142592 577.345287,643.824012 581.876871,651.249327 C586.235822,658.404237 592.434381,664.266612 593.324513,665.094051 C593.40004,665.164356 593.49175,665.191396 593.572671,665.261702 C597.079254,668.263195 605.219919,663.24989 605.263077,663.22285 L620.141776,655.132339 C620.174144,655.110707 620.195723,655.099891 620.228091,655.078258 C620.762171,654.715916 625.541912,651.146573 625.741518,638.594384 C625.741518,638.594384 631.276523,567.369769 631.303497,566.726205 C631.664945,558.013764 621.641514,563.740937 621.565988,563.773385" id="Fill-39" fill="#FEFEFE"></path>
        </g>
    </g>
</svg>